<svg xmlns="http://www.w3.org/2000/svg" viewBox="0 0 360 240" role="img" aria-labelledby="title desc">
  <title id="title">kat</title>
  <desc id="desc">A polished learning visual for kat.</desc>
  <defs>
    <linearGradient id="w-bg" x1="0" y1="0" x2="1" y2="1">
      <stop offset="0" stop-color="#effaff"/>
      <stop offset="1" stop-color="#fff8e8"/>
    </linearGradient>
    <linearGradient id="w-blue" x1="0" y1="0" x2="1" y2="1">
      <stop offset="0" stop-color="#6bd3ff"/>
      <stop offset="1" stop-color="#1cb0f6"/>
    </linearGradient>
    <linearGradient id="w-green" x1="0" y1="0" x2="1" y2="1">
      <stop offset="0" stop-color="#a7ea4e"/>
      <stop offset="1" stop-color="#58cc02"/>
    </linearGradient>
    <linearGradient id="w-gold" x1="0" y1="0" x2="1" y2="1">
      <stop offset="0" stop-color="#ffe37a"/>
      <stop offset="1" stop-color="#ffc800"/>
    </linearGradient>
    <filter id="w-shadow" x="-20%" y="-20%" width="140%" height="150%">
      <feDropShadow dx="0" dy="10" stdDeviation="10" flood-color="#24313a" flood-opacity="0.16"/>
    </filter>
    <filter id="w-soft" x="-20%" y="-20%" width="140%" height="140%">
      <feDropShadow dx="0" dy="5" stdDeviation="5" flood-color="#24313a" flood-opacity="0.10"/>
    </filter>
  </defs>
  <rect width="360" height="240" fill="url(#w-bg)"/>
  <circle cx="300" cy="48" r="54" fill="#1cb0f6" opacity="0.13"/>
  <circle cx="54" cy="206" r="68" fill="#58cc02" opacity="0.10"/>
  <rect x="26" y="24" width="308" height="192" rx="30" fill="#fff" stroke="#d7edf5" stroke-width="5" filter="url(#w-soft)"/>
  <ellipse cx="180" cy="184" rx="104" ry="18" fill="#24313a" opacity="0.08"/>
  <g transform="translate(180 126)" filter="url(#w-soft)"><circle cy="8" r="58" fill="#ffc800"/><path d="M-46-32l-18-46 46 20M46-32l18-46-46 20" fill="#ffc800"/><circle cx="-18" cy="-2" r="6" fill="#24313a"/><circle cx="18" cy="-2" r="6" fill="#24313a"/><path d="M0 12v14M-16 30c10 8 22 8 32 0" stroke="#24313a" stroke-width="5" stroke-linecap="round" fill="none"/></g>
</svg>
