<svg xmlns="http://www.w3.org/2000/svg" viewBox="0 0 360 240" role="img" aria-labelledby="title desc">
  <title id="title">ruilen</title>
  <desc id="desc">A polished learning visual for ruilen.</desc>
  <defs>
    <linearGradient id="w-bg" x1="0" y1="0" x2="1" y2="1">
      <stop offset="0" stop-color="#effaff"/>
      <stop offset="1" stop-color="#fff8e8"/>
    </linearGradient>
    <linearGradient id="w-blue" x1="0" y1="0" x2="1" y2="1">
      <stop offset="0" stop-color="#6bd3ff"/>
      <stop offset="1" stop-color="#1cb0f6"/>
    </linearGradient>
    <linearGradient id="w-green" x1="0" y1="0" x2="1" y2="1">
      <stop offset="0" stop-color="#a7ea4e"/>
      <stop offset="1" stop-color="#58cc02"/>
    </linearGradient>
    <linearGradient id="w-gold" x1="0" y1="0" x2="1" y2="1">
      <stop offset="0" stop-color="#ffe37a"/>
      <stop offset="1" stop-color="#ffc800"/>
    </linearGradient>
    <filter id="w-shadow" x="-20%" y="-20%" width="140%" height="150%">
      <feDropShadow dx="0" dy="10" stdDeviation="10" flood-color="#24313a" flood-opacity="0.16"/>
    </filter>
    <filter id="w-soft" x="-20%" y="-20%" width="140%" height="140%">
      <feDropShadow dx="0" dy="5" stdDeviation="5" flood-color="#24313a" flood-opacity="0.10"/>
    </filter>
  </defs>
  <rect width="360" height="240" fill="url(#w-bg)"/>
  <circle cx="300" cy="48" r="54" fill="#ffc800" opacity="0.13"/>
  <circle cx="54" cy="206" r="68" fill="#58cc02" opacity="0.10"/>
  <rect x="26" y="24" width="308" height="192" rx="30" fill="#fff" stroke="#d7edf5" stroke-width="5" filter="url(#w-soft)"/>
  <ellipse cx="180" cy="184" rx="104" ry="18" fill="#24313a" opacity="0.08"/>
  <g transform="translate(180 124)" filter="url(#w-soft)"><path d="M-74-8c18-42 58-62 102-52" stroke="url(#w-blue)" stroke-width="14" stroke-linecap="round" fill="none"/><path d="M18-82l44 24-38 30" fill="none" stroke="url(#w-blue)" stroke-width="14" stroke-linecap="round" stroke-linejoin="round"/><path d="M74 14c-18 42-58 62-102 52" stroke="url(#w-green)" stroke-width="14" stroke-linecap="round" fill="none"/><path d="M-18 82l-44-24 38-30" fill="none" stroke="url(#w-green)" stroke-width="14" stroke-linecap="round" stroke-linejoin="round"/></g>
</svg>
