<svg xmlns="http://www.w3.org/2000/svg" viewBox="0 0 960 540" role="img" aria-labelledby="title desc">
  <title id="title">Body and health</title>
  <desc id="desc">A polished body and health vocabulary visual.</desc>
  <defs>
    <linearGradient id="h-bg" x1="0" y1="0" x2="1" y2="1">
      <stop offset="0" stop-color="#effaff"/>
      <stop offset="1" stop-color="#fff8e8"/>
    </linearGradient>
    <linearGradient id="h-blue" x1="0" y1="0" x2="1" y2="1">
      <stop offset="0" stop-color="#6bd3ff"/>
      <stop offset="1" stop-color="#1cb0f6"/>
    </linearGradient>
    <linearGradient id="h-green" x1="0" y1="0" x2="1" y2="1">
      <stop offset="0" stop-color="#a7ea4e"/>
      <stop offset="1" stop-color="#58cc02"/>
    </linearGradient>
    <linearGradient id="h-gold" x1="0" y1="0" x2="1" y2="1">
      <stop offset="0" stop-color="#ffe37a"/>
      <stop offset="1" stop-color="#ffc800"/>
    </linearGradient>
    <filter id="h-shadow" x="-20%" y="-20%" width="140%" height="150%">
      <feDropShadow dx="0" dy="10" stdDeviation="10" flood-color="#24313a" flood-opacity="0.16"/>
    </filter>
    <filter id="h-soft" x="-20%" y="-20%" width="140%" height="140%">
      <feDropShadow dx="0" dy="5" stdDeviation="5" flood-color="#24313a" flood-opacity="0.10"/>
    </filter>
  </defs>
  <rect width="960" height="540" rx="0" fill="url(#h-bg)"/>
  <circle cx="790" cy="92" r="118" fill="#1cb0f6" opacity="0.10"/>
  <circle cx="104" cy="454" r="144" fill="#58cc02" opacity="0.10"/>
  <path d="M0 420c110-38 182-4 298-26 138-26 224-82 392-42 114 27 194 22 270-5v193H0z" fill="#ffffff" opacity="0.72"/>
  
  <g filter="url(#h-shadow)">
    <rect x="108" y="86" width="744" height="360" rx="38" fill="#fff" stroke="#d7edf5" stroke-width="7"/>
    
    <g transform="translate(288 238) scale(1.0)" filter="url(#h-soft)">
      <path d="M-56 126c6-62 34-96 82-96s76 34 82 96v48H-56z" fill="url(#h-green)"/>
      <circle cx="26" cy="-18" r="38" fill="#d99a6c"/>
      <path d="M-13-26c16-39 71-43 88-5-9 13-27 21-50 23-17 2-30-4-38-18z" fill="#24313a"/>
      <circle cx="11" cy="-8" r="4" fill="#24313a"/><circle cx="43" cy="-8" r="4" fill="#24313a"/>
      <path d="M15 12c15 10 30 10 43 0" fill="none" stroke="#24313a" stroke-width="5" stroke-linecap="round" opacity="0.55"/>
    </g>
    
    <g transform="translate(456 230) scale(0.92)" filter="url(#h-soft)">
      <path d="M-56 126c6-62 34-96 82-96s76 34 82 96v48H-56z" fill="url(#h-blue)"/>
      <circle cx="26" cy="-18" r="38" fill="#c98254"/>
      <path d="M-13-26c16-39 71-43 88-5-9 13-27 21-50 23-17 2-30-4-38-18z" fill="#4d2f23"/>
      <circle cx="11" cy="-8" r="4" fill="#24313a"/><circle cx="43" cy="-8" r="4" fill="#24313a"/>
      <path d="M15 12c15 10 30 10 43 0" fill="none" stroke="#24313a" stroke-width="5" stroke-linecap="round" opacity="0.55"/>
    </g>
    <g transform="translate(640 176)"><rect x="-82" y="-58" width="164" height="202" rx="22" fill="#f7fcff" stroke="#c8e3ef" stroke-width="6"/><circle cx="0" cy="-10" r="24" fill="#d99a6c"/><path d="M-34 84c5-48 19-70 34-70s29 22 34 70" fill="none" stroke="#1cb0f6" stroke-width="18" stroke-linecap="round"/><circle cx="0" cy="26" r="8" fill="#ff5c5c"/><circle cx="-22" cy="68" r="7" fill="#ffc800"/><circle cx="24" cy="68" r="7" fill="#58cc02"/></g>
    <g transform="translate(246 362)"><rect x="-58" y="-20" width="116" height="40" rx="20" fill="#ffc800"/><rect x="-8" y="-50" width="16" height="100" rx="8" fill="#fff" stroke="#24313a" stroke-width="5"/></g>
    <g transform="translate(760 354)"><circle r="38" fill="#ff5c5c"/><rect x="-7" y="-24" width="14" height="48" rx="5" fill="#fff"/><rect x="-24" y="-7" width="48" height="14" rx="5" fill="#fff"/></g>
  </g>
</svg>
