<svg xmlns="http://www.w3.org/2000/svg" viewBox="0 0 960 540" role="img" aria-labelledby="title desc">
  <title id="title">Transport and routine</title>
  <desc id="desc">A polished transport and daily routine visual.</desc>
  <defs>
    <linearGradient id="h-bg" x1="0" y1="0" x2="1" y2="1">
      <stop offset="0" stop-color="#effaff"/>
      <stop offset="1" stop-color="#fff8e8"/>
    </linearGradient>
    <linearGradient id="h-blue" x1="0" y1="0" x2="1" y2="1">
      <stop offset="0" stop-color="#6bd3ff"/>
      <stop offset="1" stop-color="#1cb0f6"/>
    </linearGradient>
    <linearGradient id="h-green" x1="0" y1="0" x2="1" y2="1">
      <stop offset="0" stop-color="#a7ea4e"/>
      <stop offset="1" stop-color="#58cc02"/>
    </linearGradient>
    <linearGradient id="h-gold" x1="0" y1="0" x2="1" y2="1">
      <stop offset="0" stop-color="#ffe37a"/>
      <stop offset="1" stop-color="#ffc800"/>
    </linearGradient>
    <filter id="h-shadow" x="-20%" y="-20%" width="140%" height="150%">
      <feDropShadow dx="0" dy="10" stdDeviation="10" flood-color="#24313a" flood-opacity="0.16"/>
    </filter>
    <filter id="h-soft" x="-20%" y="-20%" width="140%" height="140%">
      <feDropShadow dx="0" dy="5" stdDeviation="5" flood-color="#24313a" flood-opacity="0.10"/>
    </filter>
  </defs>
  <rect width="960" height="540" rx="0" fill="url(#h-bg)"/>
  <circle cx="790" cy="92" r="118" fill="#1cb0f6" opacity="0.10"/>
  <circle cx="104" cy="454" r="144" fill="#58cc02" opacity="0.10"/>
  <path d="M0 420c110-38 182-4 298-26 138-26 224-82 392-42 114 27 194 22 270-5v193H0z" fill="#ffffff" opacity="0.72"/>
  
  <g filter="url(#h-shadow)">
    <rect x="108" y="104" width="744" height="312" rx="38" fill="#fff" stroke="#d7edf5" stroke-width="7"/>
    <path d="M160 340h650" stroke="#c8e3ef" stroke-width="12" stroke-linecap="round"/>
    <g transform="translate(240 240) scale(1.15)"><g fill="none" stroke-linecap="round" stroke-linejoin="round"><circle cx="-48" cy="38" r="30" stroke="#24313a" stroke-width="8"/><circle cx="60" cy="38" r="30" stroke="#24313a" stroke-width="8"/><path d="M-48 38l42-64 34 64h-76l48-1 24-40h36" stroke="#1cb0f6" stroke-width="10"/><path d="M13-45h40M25-3l-20-34" stroke="#24313a" stroke-width="8"/></g></g>
    <g transform="translate(520 224)"><rect x="-88" y="-52" width="176" height="104" rx="26" fill="url(#h-blue)"/><rect x="-56" y="-28" width="112" height="42" rx="12" fill="#dff4ff"/><circle cx="-48" cy="62" r="18" fill="#24313a"/><circle cx="48" cy="62" r="18" fill="#24313a"/></g>
    <g transform="translate(722 212)"><rect x="-46" y="-88" width="92" height="156" rx="22" fill="#fff" stroke="#c8e3ef" stroke-width="6"/><circle cx="0" cy="-38" r="30" fill="url(#h-green)"/><path d="M0 68v92" stroke="#24313a" stroke-width="10" stroke-linecap="round"/></g>
    <g transform="translate(708 338)"><rect x="-60" y="-32" width="120" height="64" rx="16" fill="url(#h-gold)"/><circle cx="-32" cy="0" r="8" fill="#24313a"/><path d="M-5 0h38" stroke="#24313a" stroke-width="7" stroke-linecap="round"/></g>
  </g>
</svg>
