<svg xmlns="http://www.w3.org/2000/svg" viewBox="0 0 360 240" role="img" aria-labelledby="title desc">
  <title id="title">Discount offer</title>
  <desc id="desc">A simple learning visual for discount offer.</desc>
  <rect width="360" height="240" rx="0" fill="#f4fbff"/>
  <circle cx="304" cy="42" r="54" fill="#ff5c5c" opacity="0.18"/>
  <path d="M0 174c46-18 92-8 138-16 72-13 106-44 181-19 25 8 41 12 41 12v89H0z" fill="#fff8e7"/>
  <path d="M180 48l35 34 49-1-1 49 34 35-34 35 1 49-49-1-35 34-35-34-49 1 1-49-34-35 34-35-1-49 49 1z" fill="#ff5c5c"/><circle cx="145" cy="130" r="16" fill="#fff"/><circle cx="214" cy="181" r="16" fill="#fff"/><path d="M134 191l92-72" stroke="#fff" stroke-width="10" stroke-linecap="round"/>
</svg>
