<svg xmlns="http://www.w3.org/2000/svg" viewBox="0 0 360 240" role="img" aria-labelledby="title desc">
  <title id="title">Teacher</title>
  <desc id="desc">A simple learning visual for teacher.</desc>
  <rect width="360" height="240" rx="0" fill="#f4fbff"/>
  <circle cx="304" cy="42" r="54" fill="#8b5cf6" opacity="0.18"/>
  <path d="M0 174c46-18 92-8 138-16 72-13 106-44 181-19 25 8 41 12 41 12v89H0z" fill="#fff8e7"/>
  <g transform="translate(114 135) scale(1)">
    <circle cx="0" cy="-38" r="25" fill="#c98254"/>
    <path d="M-28 -44c8-31 48-34 62-6-17 10-43 12-62 6z" fill="#24313a"/>
    <path d="M-50 54c5-62 22-91 50-91s45 29 50 91z" fill="#8b5cf6"/>
  </g><rect x="168" y="72" width="116" height="86" rx="12" fill="#24313a"/><path d="M190 104h70M190 130h48" stroke="#58cc02" stroke-width="8" stroke-linecap="round"/>
</svg>
