<svg xmlns="http://www.w3.org/2000/svg" viewBox="0 0 360 240" role="img" aria-labelledby="title desc">
  <title id="title">Greeting</title>
  <desc id="desc">A simple learning visual for greeting.</desc>
  <rect width="360" height="240" fill="#f4fbff"/>
  <circle cx="306" cy="44" r="54" fill="#1cb0f6" opacity="0.18"/>
  <path d="M0 174c46-18 92-8 138-16 72-13 106-44 181-19 25 8 41 12 41 12v89H0z" fill="#fff8e7"/>
  <g transform="translate(152 143) scale(0.75)"><circle cx="0" cy="-35" r="24" fill="#c98254"/><path d="M-28 -40c10-30 48-31 61-5-20 10-42 10-61 5z" fill="#24313a"/><path d="M-48 58c5-62 22-93 48-93s43 31 48 93z" fill="#1cb0f6"/></g><path d="M202 96c20-32 47-24 47 2 0 34-32 53-62 61" fill="none" stroke="#24313a" stroke-width="14" stroke-linecap="round"/>
</svg>
