<svg xmlns="http://www.w3.org/2000/svg" viewBox="0 0 360 240" role="img" aria-labelledby="title desc">
  <title id="title">Cashier</title>
  <desc id="desc">A simple learning visual for cashier.</desc>
  <rect width="360" height="240" rx="0" fill="#f4fbff"/>
  <circle cx="304" cy="42" r="54" fill="#1cb0f6" opacity="0.18"/>
  <path d="M0 174c46-18 92-8 138-16 72-13 106-44 181-19 25 8 41 12 41 12v89H0z" fill="#fff8e7"/>
  <rect x="72" y="146" width="216" height="54" rx="18" fill="#1cb0f6"/><g transform="translate(128 132) scale(0.66)">
    <circle cx="0" cy="-38" r="25" fill="#c98254"/>
    <path d="M-28 -44c8-31 48-34 62-6-17 10-43 12-62 6z" fill="#24313a"/>
    <path d="M-50 54c5-62 22-91 50-91s45 29 50 91z" fill="#ffb84d"/>
  </g><rect x="184" y="88" width="76" height="58" rx="12" fill="#fff" stroke="#c8e3ef" stroke-width="7"/><circle cx="238" cy="82" r="18" fill="#58cc02"/>
</svg>
