<svg xmlns="http://www.w3.org/2000/svg" viewBox="0 0 360 240" role="img" aria-labelledby="title desc">
  <title id="title">Cat</title>
  <desc id="desc">A simple learning visual for cat.</desc>
  <rect width="360" height="240" rx="0" fill="#f4fbff"/>
  <circle cx="304" cy="42" r="54" fill="#8b5cf6" opacity="0.18"/>
  <path d="M0 174c46-18 92-8 138-16 72-13 106-44 181-19 25 8 41 12 41 12v89H0z" fill="#fff8e7"/>
  <path d="M112 98l24-34 23 34M202 98l24-34 23 34" fill="#8b5cf6"/><rect x="112" y="88" width="136" height="98" rx="48" fill="#8b5cf6"/><circle cx="154" cy="128" r="8" fill="#24313a"/><circle cx="207" cy="128" r="8" fill="#24313a"/><path d="M181 142l-9 12h18zM142 160c28 16 49 16 77 0" fill="none" stroke="#24313a" stroke-width="6" stroke-linecap="round"/>
</svg>
