<svg xmlns="http://www.w3.org/2000/svg" viewBox="0 0 360 240" role="img" aria-labelledby="title desc">
  <title id="title">Fever</title>
  <desc id="desc">A simple learning visual for fever.</desc>
  <rect width="360" height="240" rx="0" fill="#f4fbff"/>
  <circle cx="304" cy="42" r="54" fill="#ff7b63" opacity="0.18"/>
  <path d="M0 174c46-18 92-8 138-16 72-13 106-44 181-19 25 8 41 12 41 12v89H0z" fill="#fff8e7"/>
  <g transform="translate(145 138) scale(1)">
    <circle cx="0" cy="-38" r="25" fill="#c98254"/>
    <path d="M-28 -44c8-31 48-34 62-6-17 10-43 12-62 6z" fill="#24313a"/>
    <path d="M-50 54c5-62 22-91 50-91s45 29 50 91z" fill="#ffdddd"/>
  </g><rect x="218" y="62" width="26" height="104" rx="13" fill="#fff" stroke="#24313a" stroke-width="7"/><circle cx="231" cy="171" r="22" fill="#ff7b63"/><rect x="224" y="94" width="14" height="76" rx="7" fill="#ff7b63"/>
</svg>
