<svg xmlns="http://www.w3.org/2000/svg" viewBox="0 0 360 240" role="img" aria-labelledby="title desc">
  <title id="title">Leakage</title>
  <desc id="desc">A simple learning visual for leakage.</desc>
  <rect width="360" height="240" rx="0" fill="#f4fbff"/>
  <circle cx="304" cy="42" r="54" fill="#1cb0f6" opacity="0.18"/>
  <path d="M0 174c46-18 92-8 138-16 72-13 106-44 181-19 25 8 41 12 41 12v89H0z" fill="#fff8e7"/>
  <path d="M135 55h95v40h-95z" fill="#24313a"/><path d="M180 95v28" stroke="#24313a" stroke-width="14"/><path d="M180 126c25 34 38 53 38 73 0 22-17 37-38 37s-38-15-38-37c0-20 13-39 38-73z" fill="#1cb0f6"/><path d="M224 110c18 22 27 35 27 48 0 16-12 26-27 26s-27-10-27-26c0-13 9-26 27-48z" fill="#64ceff" opacity=".75"/>
</svg>
