<svg xmlns="http://www.w3.org/2000/svg" viewBox="0 0 360 240" role="img" aria-labelledby="title desc">
  <title id="title">School</title>
  <desc id="desc">A simple learning visual for school.</desc>
  <rect width="360" height="240" rx="0" fill="#f4fbff"/>
  <circle cx="304" cy="42" r="54" fill="#ffb84d" opacity="0.18"/>
  <path d="M0 174c46-18 92-8 138-16 72-13 106-44 181-19 25 8 41 12 41 12v89H0z" fill="#fff8e7"/>
  <path d="M80 92l100.0 -52L280 92z" fill="#ffb84d"/><rect x="88" y="92" width="184" height="102" rx="12" fill="#fff" stroke="#c8e3ef" stroke-width="7"/>
  <rect x="162.0" y="136" width="36" height="58" rx="7" fill="#ffb84d" opacity=".85"/>
  <rect x="112" y="124" width="34" height="34" rx="7" fill="#dff4ff"/>
  <rect x="214" y="124" width="34" height="34" rx="7" fill="#dff4ff"/><path d="M98 87l82-48 82 48" fill="none" stroke="#ffb84d" stroke-width="12" stroke-linecap="round"/>
</svg>
