<svg xmlns="http://www.w3.org/2000/svg" viewBox="0 0 360 240" role="img" aria-labelledby="title desc">
  <title id="title">Heating</title>
  <desc id="desc">A simple learning visual for heating.</desc>
  <rect width="360" height="240" rx="0" fill="#f4fbff"/>
  <circle cx="304" cy="42" r="54" fill="#ff7b63" opacity="0.18"/>
  <path d="M0 174c46-18 92-8 138-16 72-13 106-44 181-19 25 8 41 12 41 12v89H0z" fill="#fff8e7"/>
  <rect x="106" y="78" width="148" height="114" rx="16" fill="#fff" stroke="#ff7b63" stroke-width="8"/><path d="M136 102v66M165 102v66M194 102v66M223 102v66" stroke="#ff7b63" stroke-width="8" stroke-linecap="round"/><path d="M104 55c18-18 36-18 54 0s36 18 54 0 36-18 54 0" stroke="#ffb84d" stroke-width="8" stroke-linecap="round" fill="none"/>
</svg>
