<svg xmlns="http://www.w3.org/2000/svg" viewBox="0 0 360 240" role="img" aria-labelledby="title desc">
  <title id="title">Water</title>
  <desc id="desc">A simple learning visual for water.</desc>
  <rect width="360" height="240" rx="0" fill="#f4fbff"/>
  <circle cx="304" cy="42" r="54" fill="#1cb0f6" opacity="0.18"/>
  <path d="M0 174c46-18 92-8 138-16 72-13 106-44 181-19 25 8 41 12 41 12v89H0z" fill="#fff8e7"/>
  <path d="M180 50c45 58 68 91 68 123 0 38-30 62-68 62s-68-24-68-62c0-32 23-65 68-123z" fill="#1cb0f6"/><path d="M145 162c6 24 24 36 50 34" fill="none" stroke="#fff" stroke-width="10" stroke-linecap="round" opacity=".75"/>
</svg>
