<svg xmlns="http://www.w3.org/2000/svg" viewBox="0 0 360 240" role="img" aria-labelledby="title desc">
  <title id="title">Sick</title>
  <desc id="desc">A simple learning visual for sick.</desc>
  <rect width="360" height="240" rx="0" fill="#f4fbff"/>
  <circle cx="304" cy="42" r="54" fill="#8b5cf6" opacity="0.18"/>
  <path d="M0 174c46-18 92-8 138-16 72-13 106-44 181-19 25 8 41 12 41 12v89H0z" fill="#fff8e7"/>
  <g transform="translate(180 137) scale(1)">
    <circle cx="0" cy="-38" r="25" fill="#c98254"/>
    <path d="M-28 -44c8-31 48-34 62-6-17 10-43 12-62 6z" fill="#24313a"/>
    <path d="M-50 54c5-62 22-91 50-91s45 29 50 91z" fill="#e8ddff"/>
  </g><rect x="132" y="82" width="96" height="28" rx="14" fill="#fff" stroke="#8b5cf6" stroke-width="7"/><path d="M150 96h60" stroke="#8b5cf6" stroke-width="7"/>
</svg>
