<svg xmlns="http://www.w3.org/2000/svg" viewBox="0 0 960 540" role="img" aria-labelledby="title desc">
  <title id="title">Daily services and appointments</title>
  <desc id="desc">Public service desk with forms, calendar, work, school, and shopping items.</desc>
  <rect width="960" height="540" fill="#fff9ed"/>
  <rect x="90" y="92" width="780" height="336" rx="28" fill="#ffffff" stroke="#c8e3ef" stroke-width="8"/>
  <rect x="145" y="306" width="670" height="92" rx="22" fill="#1cb0f6"/>
  <rect x="188" y="184" width="148" height="154" rx="18" fill="#ffffff" stroke="#d6e6ee" stroke-width="8"/>
  <path d="M218 226h88M218 263h88M218 300h58" stroke="#c8e3ef" stroke-width="10" stroke-linecap="round"/>
  <rect x="384" y="173" width="150" height="118" rx="16" fill="#ffdf63"/>
  <path d="M384 214h150" stroke="#ad8720" stroke-width="8"/>
  <circle cx="426" cy="247" r="12" fill="#58cc02"/>
  <circle cx="462" cy="247" r="12" fill="#58cc02"/>
  <circle cx="498" cy="247" r="12" fill="#ffffff"/>
  <rect x="578" y="177" width="142" height="94" rx="14" fill="#dff4ff" stroke="#9ed7ee" stroke-width="8"/>
  <path d="M606 237h86" stroke="#1cb0f6" stroke-width="12" stroke-linecap="round"/>
  <path d="M680 346c35-44 100-45 135 0l-22 74H702z" fill="#58cc02"/>
  <path d="M726 346v-35c0-26 44-26 44 0v35" fill="none" stroke="#24313a" stroke-width="10" stroke-linecap="round"/>
  <g transform="translate(421 303)">
    <rect width="146" height="96" rx="16" fill="#24313a"/>
    <rect x="14" y="14" width="118" height="58" rx="8" fill="#e8f8ff"/>
    <rect x="47" y="82" width="52" height="10" rx="5" fill="#6a7884"/>
  </g>
  <circle cx="122" cy="135" r="34" fill="#58cc02"/>
  <path d="M107 135h30M122 120v30" stroke="#ffffff" stroke-width="10" stroke-linecap="round"/>
</svg>
