<svg xmlns="http://www.w3.org/2000/svg" viewBox="0 0 960 540" role="img" aria-labelledby="title desc">
  <title id="title">Daily services</title>
  <desc id="desc">A polished daily services visual.</desc>
  <defs>
    <linearGradient id="h-bg" x1="0" y1="0" x2="1" y2="1">
      <stop offset="0" stop-color="#effaff"/>
      <stop offset="1" stop-color="#fff8e8"/>
    </linearGradient>
    <linearGradient id="h-blue" x1="0" y1="0" x2="1" y2="1">
      <stop offset="0" stop-color="#6bd3ff"/>
      <stop offset="1" stop-color="#1cb0f6"/>
    </linearGradient>
    <linearGradient id="h-green" x1="0" y1="0" x2="1" y2="1">
      <stop offset="0" stop-color="#a7ea4e"/>
      <stop offset="1" stop-color="#58cc02"/>
    </linearGradient>
    <linearGradient id="h-gold" x1="0" y1="0" x2="1" y2="1">
      <stop offset="0" stop-color="#ffe37a"/>
      <stop offset="1" stop-color="#ffc800"/>
    </linearGradient>
    <filter id="h-shadow" x="-20%" y="-20%" width="140%" height="150%">
      <feDropShadow dx="0" dy="10" stdDeviation="10" flood-color="#24313a" flood-opacity="0.16"/>
    </filter>
    <filter id="h-soft" x="-20%" y="-20%" width="140%" height="140%">
      <feDropShadow dx="0" dy="5" stdDeviation="5" flood-color="#24313a" flood-opacity="0.10"/>
    </filter>
  </defs>
  <rect width="960" height="540" rx="0" fill="url(#h-bg)"/>
  <circle cx="790" cy="92" r="118" fill="#1cb0f6" opacity="0.10"/>
  <circle cx="104" cy="454" r="144" fill="#58cc02" opacity="0.10"/>
  <path d="M0 420c110-38 182-4 298-26 138-26 224-82 392-42 114 27 194 22 270-5v193H0z" fill="#ffffff" opacity="0.72"/>
  
  <g filter="url(#h-shadow)">
    <rect x="104" y="92" width="752" height="344" rx="38" fill="#fff" stroke="#d7edf5" stroke-width="7"/>
    <g transform="translate(248 254)"><rect x="-94" y="-90" width="188" height="150" rx="24" fill="url(#h-blue)"/><path d="M-48-108L0-138l48 30" stroke="#24313a" stroke-width="12" stroke-linecap="round" stroke-linejoin="round" fill="none"/><rect x="-42" y="-38" width="84" height="98" rx="12" fill="#fff" opacity=".9"/></g>
    <g transform="translate(480 250)"><rect x="-70" y="-96" width="140" height="190" rx="18" fill="#f8fdff" stroke="#c8e3ef" stroke-width="7"/><path d="M-36-52h72M-36-16h72M-36 20h42" stroke="#1cb0f6" stroke-width="9" stroke-linecap="round"/><path d="M-32 62c28 18 58 4 82-28" stroke="#58cc02" stroke-width="11" stroke-linecap="round" fill="none"/></g>
    <g transform="translate(692 268)"><rect x="-92" y="-56" width="184" height="112" rx="28" fill="url(#h-gold)"/><circle cx="-42" cy="0" r="22" fill="#fff"/><rect x="-8" y="-16" width="62" height="32" rx="16" fill="#24313a" opacity=".86"/></g>
    
    <g transform="translate(770 205) scale(0.68)" filter="url(#h-soft)">
      <path d="M-56 126c6-62 34-96 82-96s76 34 82 96v48H-56z" fill="url(#h-green)"/>
      <circle cx="26" cy="-18" r="38" fill="#c98254"/>
      <path d="M-13-26c16-39 71-43 88-5-9 13-27 21-50 23-17 2-30-4-38-18z" fill="#24313a"/>
      <circle cx="11" cy="-8" r="4" fill="#24313a"/><circle cx="43" cy="-8" r="4" fill="#24313a"/>
      <path d="M15 12c15 10 30 10 43 0" fill="none" stroke="#24313a" stroke-width="5" stroke-linecap="round" opacity="0.55"/>
    </g>
  </g>
</svg>
