<svg xmlns="http://www.w3.org/2000/svg" viewBox="0 0 960 540" role="img" aria-labelledby="title desc">
  <title id="title">Home and place words</title>
  <desc id="desc">A polished home objects and place words visual.</desc>
  <defs>
    <linearGradient id="h-bg" x1="0" y1="0" x2="1" y2="1">
      <stop offset="0" stop-color="#effaff"/>
      <stop offset="1" stop-color="#fff8e8"/>
    </linearGradient>
    <linearGradient id="h-blue" x1="0" y1="0" x2="1" y2="1">
      <stop offset="0" stop-color="#6bd3ff"/>
      <stop offset="1" stop-color="#1cb0f6"/>
    </linearGradient>
    <linearGradient id="h-green" x1="0" y1="0" x2="1" y2="1">
      <stop offset="0" stop-color="#a7ea4e"/>
      <stop offset="1" stop-color="#58cc02"/>
    </linearGradient>
    <linearGradient id="h-gold" x1="0" y1="0" x2="1" y2="1">
      <stop offset="0" stop-color="#ffe37a"/>
      <stop offset="1" stop-color="#ffc800"/>
    </linearGradient>
    <filter id="h-shadow" x="-20%" y="-20%" width="140%" height="150%">
      <feDropShadow dx="0" dy="10" stdDeviation="10" flood-color="#24313a" flood-opacity="0.16"/>
    </filter>
    <filter id="h-soft" x="-20%" y="-20%" width="140%" height="140%">
      <feDropShadow dx="0" dy="5" stdDeviation="5" flood-color="#24313a" flood-opacity="0.10"/>
    </filter>
  </defs>
  <rect width="960" height="540" rx="0" fill="url(#h-bg)"/>
  <circle cx="790" cy="92" r="118" fill="#1cb0f6" opacity="0.10"/>
  <circle cx="104" cy="454" r="144" fill="#58cc02" opacity="0.10"/>
  <path d="M0 420c110-38 182-4 298-26 138-26 224-82 392-42 114 27 194 22 270-5v193H0z" fill="#ffffff" opacity="0.72"/>
  
  <g filter="url(#h-shadow)">
    <rect x="116" y="88" width="728" height="352" rx="38" fill="#fff" stroke="#d7edf5" stroke-width="7"/>
    <rect x="170" y="146" width="120" height="192" rx="18" fill="url(#h-gold)"/><circle cx="260" cy="246" r="8" fill="#24313a"/>
    <rect x="424" y="236" width="250" height="28" rx="14" fill="#8b5cf6"/><rect x="458" y="264" width="28" height="92" rx="14" fill="#24313a"/><rect x="612" y="264" width="28" height="92" rx="14" fill="#24313a"/>
    <rect x="480" y="184" width="92" height="46" rx="12" fill="url(#h-blue)"/>
    <path d="M390 352h344" stroke="#c8e3ef" stroke-width="10" stroke-linecap="round"/>
    <g transform="translate(688 174)"><rect x="-30" y="0" width="60" height="100" rx="30" fill="#ffc800"/><rect x="-44" y="100" width="88" height="18" rx="9" fill="#24313a"/><path d="M0 118v52" stroke="#24313a" stroke-width="10" stroke-linecap="round"/></g>
    <g transform="translate(352 232) scale(.88)"><g transform="translate(0 0) scale(1)"><path d="M-64-30h98c16 0 28 12 28 28v74H-42c-12 0-22-10-22-22z" fill="url(#h-blue)"/><path d="M-42-30h118c13 0 24 11 24 24v78H-42z" fill="#fff" stroke="#c8e3ef" stroke-width="5"/><path d="M-42-30v102" stroke="#1cb0f6" stroke-width="7"/><path d="M-12-2h72M-12 22h54M-12 46h66" stroke="#c8e3ef" stroke-width="8" stroke-linecap="round"/></g></g>
    <g transform="translate(570 342) scale(.74)"><g transform="translate(0 0) rotate(-20) scale(1)"><rect x="-82" y="-12" width="150" height="24" rx="12" fill="url(#h-blue)"/><path d="M68-12l34 12-34 12z" fill="#24313a"/><rect x="-54" y="-12" width="26" height="24" fill="#ffc800"/></g></g>
  </g>
</svg>
