<svg xmlns="http://www.w3.org/2000/svg" viewBox="0 0 960 540" role="img" aria-labelledby="title desc">
  <title id="title">Home and place words</title>
  <desc id="desc">A cozy room with objects arranged for in, on, and under.</desc>
  <rect width="960" height="540" fill="#edfaff"/>
  <rect x="58" y="74" width="844" height="374" rx="28" fill="#ffffff" stroke="#c7e2ee" stroke-width="8"/>
  <rect x="98" y="114" width="180" height="142" rx="16" fill="#dff4ff"/>
  <path d="M98 188h180M188 114v142" stroke="#9ed7ee" stroke-width="8"/>
  <rect x="684" y="120" width="138" height="328" rx="12" fill="#ffcf57"/>
  <circle cx="790" cy="286" r="8" fill="#8a6500"/>
  <rect x="232" y="314" width="306" height="104" rx="28" fill="#1cb0f6"/>
  <rect x="200" y="262" width="368" height="82" rx="30" fill="#64ceff"/>
  <rect x="266" y="234" width="74" height="58" rx="12" fill="#8b5cf6"/>
  <rect x="403" y="236" width="74" height="56" rx="12" fill="#58cc02"/>
  <rect x="366" y="338" width="190" height="20" rx="10" fill="#178bc0"/>
  <rect x="376" y="356" width="18" height="76" rx="9" fill="#24313a"/>
  <rect x="523" y="356" width="18" height="76" rx="9" fill="#24313a"/>
  <rect x="130" y="360" width="118" height="26" rx="13" fill="#ffc800"/>
  <rect x="150" y="386" width="18" height="56" rx="9" fill="#6a5700"/>
  <rect x="210" y="386" width="18" height="56" rx="9" fill="#6a5700"/>
  <rect x="153" y="306" width="64" height="44" rx="8" fill="#ffffff" stroke="#c7e2ee" stroke-width="6"/>
  <path d="M614 206h42v174h-42z" fill="#24313a"/>
  <ellipse cx="635" cy="202" rx="61" ry="22" fill="#ffefae"/>
  <path d="M588 202c16-71 81-70 96 0z" fill="#ffc800"/>
  <ellipse cx="477" cy="458" rx="359" ry="26" fill="#d9e8ee"/>
</svg>
