<svg xmlns="http://www.w3.org/2000/svg" viewBox="0 0 960 540" role="img" aria-labelledby="title desc">
  <title id="title">People and family</title>
  <desc id="desc">A polished people and family vocabulary visual.</desc>
  <defs>
    <linearGradient id="h-bg" x1="0" y1="0" x2="1" y2="1">
      <stop offset="0" stop-color="#effaff"/>
      <stop offset="1" stop-color="#fff8e8"/>
    </linearGradient>
    <linearGradient id="h-blue" x1="0" y1="0" x2="1" y2="1">
      <stop offset="0" stop-color="#6bd3ff"/>
      <stop offset="1" stop-color="#1cb0f6"/>
    </linearGradient>
    <linearGradient id="h-green" x1="0" y1="0" x2="1" y2="1">
      <stop offset="0" stop-color="#a7ea4e"/>
      <stop offset="1" stop-color="#58cc02"/>
    </linearGradient>
    <linearGradient id="h-gold" x1="0" y1="0" x2="1" y2="1">
      <stop offset="0" stop-color="#ffe37a"/>
      <stop offset="1" stop-color="#ffc800"/>
    </linearGradient>
    <filter id="h-shadow" x="-20%" y="-20%" width="140%" height="150%">
      <feDropShadow dx="0" dy="10" stdDeviation="10" flood-color="#24313a" flood-opacity="0.16"/>
    </filter>
    <filter id="h-soft" x="-20%" y="-20%" width="140%" height="140%">
      <feDropShadow dx="0" dy="5" stdDeviation="5" flood-color="#24313a" flood-opacity="0.10"/>
    </filter>
  </defs>
  <rect width="960" height="540" rx="0" fill="url(#h-bg)"/>
  <circle cx="790" cy="92" r="118" fill="#1cb0f6" opacity="0.10"/>
  <circle cx="104" cy="454" r="144" fill="#58cc02" opacity="0.10"/>
  <path d="M0 420c110-38 182-4 298-26 138-26 224-82 392-42 114 27 194 22 270-5v193H0z" fill="#ffffff" opacity="0.72"/>
  
  <ellipse cx="480" cy="418" rx="330" ry="52" fill="#24313a" opacity="0.08"/>
  
    <g transform="translate(342 244) scale(1.15)" filter="url(#h-soft)">
      <path d="M-56 126c6-62 34-96 82-96s76 34 82 96v48H-56z" fill="url(#h-blue)"/>
      <circle cx="26" cy="-18" r="38" fill="#c98254"/>
      <path d="M-13-26c16-39 71-43 88-5-9 13-27 21-50 23-17 2-30-4-38-18z" fill="#24313a"/>
      <circle cx="11" cy="-8" r="4" fill="#24313a"/><circle cx="43" cy="-8" r="4" fill="#24313a"/>
      <path d="M15 12c15 10 30 10 43 0" fill="none" stroke="#24313a" stroke-width="5" stroke-linecap="round" opacity="0.55"/>
    </g>
  
    <g transform="translate(514 238) scale(1.18)" filter="url(#h-soft)">
      <path d="M-56 126c6-62 34-96 82-96s76 34 82 96v48H-56z" fill="url(#h-green)"/>
      <circle cx="26" cy="-18" r="38" fill="#e6a878"/>
      <path d="M-13-26c16-39 71-43 88-5-9 13-27 21-50 23-17 2-30-4-38-18z" fill="#4d2f23"/>
      <circle cx="11" cy="-8" r="4" fill="#24313a"/><circle cx="43" cy="-8" r="4" fill="#24313a"/>
      <path d="M15 12c15 10 30 10 43 0" fill="none" stroke="#24313a" stroke-width="5" stroke-linecap="round" opacity="0.55"/>
    </g>
  
    <g transform="translate(654 286) scale(0.82)" filter="url(#h-soft)">
      <path d="M-56 126c6-62 34-96 82-96s76 34 82 96v48H-56z" fill="url(#h-gold)"/>
      <circle cx="26" cy="-18" r="38" fill="#b8734a"/>
      <path d="M-13-26c16-39 71-43 88-5-9 13-27 21-50 23-17 2-30-4-38-18z" fill="#24313a"/>
      <circle cx="11" cy="-8" r="4" fill="#24313a"/><circle cx="43" cy="-8" r="4" fill="#24313a"/>
      <path d="M15 12c15 10 30 10 43 0" fill="none" stroke="#24313a" stroke-width="5" stroke-linecap="round" opacity="0.55"/>
    </g>
  
    <g transform="translate(236 302) scale(0.78)" filter="url(#h-soft)">
      <path d="M-56 126c6-62 34-96 82-96s76 34 82 96v48H-56z" fill="#8b5cf6"/>
      <circle cx="26" cy="-18" r="38" fill="#d99a6c"/>
      <path d="M-13-26c16-39 71-43 88-5-9 13-27 21-50 23-17 2-30-4-38-18z" fill="#34251f"/>
      <circle cx="11" cy="-8" r="4" fill="#24313a"/><circle cx="43" cy="-8" r="4" fill="#24313a"/>
      <path d="M15 12c15 10 30 10 43 0" fill="none" stroke="#24313a" stroke-width="5" stroke-linecap="round" opacity="0.55"/>
    </g>
  <g filter="url(#h-soft)"><rect x="650" y="114" width="130" height="96" rx="20" fill="#fff" stroke="#c8e3ef" stroke-width="6"/><path d="M686 162c18-28 54-28 72 0-18 31-54 31-72 0z" fill="#ff5c5c"/></g>
</svg>
