<svg xmlns="http://www.w3.org/2000/svg" viewBox="0 0 960 540" role="img" aria-labelledby="title desc">
  <title id="title">Sentence practice</title>
  <desc id="desc">Word tiles being arranged into a sentence.</desc>
  <rect width="960" height="540" fill="#eefaff"/>
  <rect x="116" y="96" width="728" height="340" rx="30" fill="#ffffff" stroke="#c8e3ef" stroke-width="8"/>
  <rect x="180" y="154" width="600" height="82" rx="18" fill="#f2fbff" stroke="#c8e3ef" stroke-width="8" stroke-dasharray="16 14"/>
  <rect x="212" y="280" width="130" height="64" rx="18" fill="#1cb0f6"/>
  <rect x="372" y="280" width="130" height="64" rx="18" fill="#58cc02"/>
  <rect x="532" y="280" width="130" height="64" rx="18" fill="#ffc800"/>
  <rect x="318" y="366" width="130" height="64" rx="18" fill="#8b5cf6"/>
  <rect x="478" y="366" width="130" height="64" rx="18" fill="#ff7b63"/>
  <circle cx="730" cy="190" r="22" fill="#58cc02"/>
  <path d="M720 190l8 8 18-22" fill="none" stroke="#ffffff" stroke-width="8" stroke-linecap="round" stroke-linejoin="round"/>
  <path d="M265 218c92-67 231-69 329 0" fill="none" stroke="#58cc02" stroke-width="16" stroke-linecap="round"/>
  <path d="M571 184l39 35-44 28" fill="none" stroke="#58cc02" stroke-width="16" stroke-linecap="round" stroke-linejoin="round"/>
</svg>
